<svg width="16" height="16" viewBox="0 0 16 16" fill="none" xmlns="http://www.w3.org/2000/svg">
<rect width="16" height="16" rx="8" fill="#DCFCE7"/>
<path d="M5.8948 12V4.72727H8.76412C9.31573 4.72727 9.78566 4.83262 10.1739 5.04332C10.5622 5.25166 10.8581 5.54167 11.0617 5.91335C11.2677 6.28267 11.3707 6.70881 11.3707 7.19176C11.3707 7.67472 11.2665 8.10085 11.0582 8.47017C10.8498 8.83949 10.548 9.12713 10.1526 9.3331C9.75962 9.53906 9.28377 9.64205 8.72505 9.64205H6.89622V8.4098H8.47647C8.7724 8.4098 9.01625 8.3589 9.20801 8.2571C9.40214 8.15294 9.54655 8.00971 9.64125 7.82741C9.73831 7.64276 9.78684 7.43087 9.78684 7.19176C9.78684 6.95028 9.73831 6.73958 9.64125 6.55966C9.54655 6.37737 9.40214 6.23651 9.20801 6.13707C9.01388 6.03527 8.76767 5.98438 8.46937 5.98438H7.43244V12H5.8948Z" fill="#22C55E"/>
</svg>
